<svg id="Capa_1" enable-background="new 0 0 512 512" height="512" viewBox="0 0 512 512" width="512" xmlns="http://www.w3.org/2000/svg"><g><path d="m507.626 4.373c-5.831-5.831-15.286-5.831-21.116 0l-201.695 201.695-33.853-33.853c-5.64-5.641-13.14-8.748-21.117-8.748s-15.477 3.107-21.116 8.747l-39.63 39.63c-.028.028-.05.058-.078.086-9.089 7.418-72.74 57.714-158.525 84.419-6.09 1.896-10.304 7.45-10.488 13.826-.138 4.765.853 48.747 76.962 124.855 73.791 73.792 117.38 76.97 124.31 76.97.218 0 .399-.003.545-.007 6.375-.185 11.93-4.398 13.826-10.488 26.627-85.534 77.007-149.421 84.427-158.534.025-.025.052-.045.077-.07l39.629-39.629c5.641-5.64 8.748-13.14 8.748-21.117s-3.107-15.477-8.747-21.116l-33.854-33.854 201.695-201.695c5.832-5.831 5.832-15.286 0-21.117zm-316.337 475.568c-4.133-1.292-9.511-3.341-16.084-6.591-5.382-2.662-11.948-6.332-19.616-11.357l19.357-19.357c5.832-5.831 5.832-15.286 0-21.116-5.831-5.831-15.286-5.831-21.116 0l-22.557 22.557c-6.961-5.665-14.463-12.212-22.473-19.761l52.069-52.069c5.832-5.831 5.832-15.286 0-21.116-5.831-5.831-15.286-5.831-21.116 0l-52.069 52.069c-7.549-8.01-14.096-15.512-19.761-22.473l22.557-22.557c5.832-5.831 5.832-15.286 0-21.117-5.831-5.831-15.286-5.831-21.116 0l-19.357 19.357c-5.024-7.668-8.695-14.234-11.357-19.616-3.25-6.573-5.299-11.95-6.591-16.084 70.522-24.216 124.371-61.498 146.498-78.291l91.023 91.023c-16.793 22.128-54.075 75.977-78.291 146.499zm98.307-168.714-88.823-88.824 29.072-29.072 88.823 88.824z"/><path d="m79.909 139.193h19.632v19.632c0 8.247 6.685 14.932 14.932 14.932s14.932-6.685 14.932-14.932v-19.632h19.631c8.246 0 14.932-6.685 14.932-14.932s-6.685-14.932-14.932-14.932h-19.631v-19.631c0-8.246-6.685-14.932-14.932-14.932s-14.932 6.685-14.932 14.932v19.631h-19.632c-8.246 0-14.932 6.685-14.932 14.932s6.685 14.932 14.932 14.932z"/><path d="m466.04 365.222h-19.632v-19.632c0-8.246-6.685-14.932-14.932-14.932s-14.932 6.685-14.932 14.932v19.632h-19.631c-8.246 0-14.932 6.685-14.932 14.932s6.685 14.932 14.932 14.932h19.631v19.631c0 8.246 6.685 14.932 14.932 14.932 8.246 0 14.932-6.685 14.932-14.932v-19.631h19.632c8.246 0 14.932-6.685 14.932-14.932s-6.686-14.932-14.932-14.932z"/><path d="m443.433 190.509c1.814 6.101 7.573 10.421 13.913 10.596 6.378.176 12.252-3.937 14.416-9.902 2.179-6.004.122-12.867-4.869-16.801-4.637-3.655-11.196-4.129-16.354-1.314-6.143 3.353-9.107 10.737-7.106 17.421z"/><path d="m250.256 95.622c5.035 4.116 12.332 4.478 17.749.876 4.806-3.197 7.387-9.092 6.45-14.789-1.056-6.419-6.262-11.535-12.72-12.42-6.411-.878-12.921 2.66-15.584 8.579-2.746 6.106-1.112 13.502 4.105 17.754z"/><path d="m346.944 443.603c-1.168-6.248-6.543-11.114-12.804-11.895-6.293-.785-12.645 2.672-15.326 8.438-2.658 5.716-1.462 12.641 3.067 17.064 4.557 4.45 11.645 5.485 17.296 2.563 5.801-3 9.114-9.747 7.767-16.17z"/></g></svg>