<svg height="512pt" viewBox="0 0 512 512" width="512pt" xmlns="http://www.w3.org/2000/svg"><path d="m481.519531 482v-83c0-13.488281-1.859375-26.554688-5.320312-38.953125 42.875-82.515625 30.597656-183.03125-30.621094-252.894531l21.566406-21.566406-10.605469-10.605469c-48.351562-48.351563-112.640624-74.980469-181.019531-74.980469-68.378906 0-132.667969 26.628906-181.019531 74.980469l-10.605469 10.605469 63.640625 63.640624 10.605469-10.605468c31.351563-31.355469 73.039063-48.621094 117.378906-48.621094 44.339844 0 86.027344 17.265625 117.378907 48.621094l10.609374 10.605468 20.800782-20.800781c46.367187 54.011719 59.464844 128.5625 35.542968 194.410157-19.796874-31.9375-51.636718-55.652344-89.136718-64.75-4.308594-29.429688-25.773438-53.347657-53.882813-61.269532 2.367188-5.464844 3.6875-11.488281 3.6875-17.816406 0-24.8125-20.1875-45-45-45s-45 20.1875-45 45c0 6.328125 1.320313 12.351562 3.683594 17.816406-28.105469 7.921875-49.570313 31.835938-53.882813 61.269532-20.632812 5.007812-39.558593 14.433593-55.703124 27.230468l-46.835938-46.835937-77.78125 77.78125 70.078125 70.078125c-.363281 4.171875-.558594 8.394531-.558594 12.660156v83h-30v30h472v-30zm-78.410156-374.800781c-35.503906-30.542969-80.269531-47.199219-127.589844-47.199219-47.320312 0-92.082031 16.65625-127.589843 47.199219l-21.265626-21.269531c41.214844-36.175782 93.515626-55.929688 148.855469-55.929688 55.34375 0 107.644531 19.753906 148.855469 55.929688zm-127.589844 56.800781c8.269531 0 15 6.730469 15 15s-6.730469 15-15 15-15-6.730469-15-15 6.726563-15 15-15zm-21 60h42c19.566407 0 36.246094 12.554688 42.429688 30.03125-.808594-.011719-1.617188-.03125-2.429688-.03125h-122c-.8125 0-1.621093.015625-2.429687.03125 6.183594-17.476562 22.863281-30.03125 42.429687-30.03125zm-212.09375 92.261719 35.355469-35.355469 25.359375 25.359375c-11.054687 13.253906-19.789063 28.507813-25.585937 45.125zm57.09375 82.738281c0-63.410156 51.589844-115 115-115h122c63.410157 0 115 51.589844 115 115v83h-352zm0 0"/></svg>