<svg id="Layer_1" enable-background="new 0 0 482 482" height="512" viewBox="0 0 482 482" width="512" xmlns="http://www.w3.org/2000/svg"><path d="m463.841 55c0-30.327-24.673-55-55-55h-335.534c-30.327 0-55 24.673-55 55v58.894c0 30.327 24.673 55 55 55h372.532v272.106c0 12.682-10.317 23-23 23h-363.68c-12.682 0-23-10.318-23-23v-2.64c0-12.682 10.318-23 23-23h201.504c19.997 0 36.987-14.301 40.399-34.006l31.305-180.819c.848-4.898-2.436-9.556-7.333-10.404-4.9-.848-9.556 2.435-10.403 7.333l-31.305 180.819c-1.914 11.054-11.445 19.077-22.663 19.077h-201.504c-22.607 0-41 18.393-41 41v2.64c0 22.607 18.393 41 41 41h363.68c22.607 0 41-18.393 41-41 0-4.509.002-376.931.002-386zm-427.534 58.894v-58.894c0-20.402 16.598-37 37-37h335.534c20.402 0 37 16.598 37 37v95.894h-372.534c-20.402 0-37-16.598-37-37zm341.192 294.106c28.121 0 51-22.878 51-51s-22.879-51-51-51-51 22.878-51 51 22.879 51 51 51zm0-84c18.196 0 33 14.804 33 33s-14.804 33-33 33-33-14.804-33-33 14.804-33 33-33zm-27-264c0 4.97-4.029 9-9 9h-10c-4.971 0-9-4.03-9-9s4.029-9 9-9h10c4.971 0 9 4.03 9 9zm0 48c0 4.97-4.029 9-9 9h-10c-4.971 0-9-4.03-9-9s4.029-9 9-9h10c4.971 0 9 4.03 9 9zm-189 77c-4.971 0-9 4.03-9 9v21.886c-23.842 4.265-42 25.139-42 50.189v45.133c0 28.122 22.878 51 51 51s51-22.878 51-51v-45.133c0-25.05-18.158-45.924-42-50.189v-21.886c0-4.97-4.029-9-9-9zm33 81.075v45.133c0 18.196-14.804 33-33 33s-33-14.804-33-33v-45.133c0-15.076 10.166-27.814 24-31.742v76.667c0 4.97 4.029 9 9 9s9-4.03 9-9v-76.668c13.834 3.929 24 16.667 24 31.743z"/></svg>